HIERARCHY
ROOT hip
{
  OFFSET -0.41909 39.8089 0.161339
  CHANNELS 6 Xposition Yposition Zposition Zrotation Xrotation Yrotation
  JOINT abdomen
  {
    OFFSET 0 7.2397 0
    CHANNELS 6 Xposition Yposition Zposition Zrotation Xrotation Yrotation
    JOINT chest
    {
      OFFSET 0 16.546 0
      CHANNELS 6 Xposition Yposition Zposition Zrotation Xrotation Yrotation
      JOINT neck
      {
        OFFSET 0 34.2149 0
        CHANNELS 6 Xposition Yposition Zposition Zrotation Xrotation Yrotation
        JOINT head
        {
          OFFSET 0 6.2923 0
          CHANNELS 6 Xposition Yposition Zposition Zrotation Xrotation Yrotation
          End Site
          {
            OFFSET 0 21.2161 0
          }
        }
      }
      JOINT lCollar
      {
        OFFSET 4.0639 26.6115 -1.1234
        CHANNELS 6 Xposition Yposition Zposition Zrotation Xrotation Yrotation
        JOINT lShldr
        {
          OFFSET 14.1772 0 0
          CHANNELS 6 Xposition Yposition Zposition Zrotation Xrotation Yrotation
          JOINT lForeArm
          {
            OFFSET 26.1234 0 0
            CHANNELS 6 Xposition Yposition Zposition Zrotation Xrotation Yrotation
            JOINT lHand
            {
              OFFSET 27.7188 0 0
              CHANNELS 6 Xposition Yposition Zposition Zrotation Xrotation Yrotation
              JOINT lThumb1
              {
                OFFSET 2.2979 -0.4685 1.8313
                CHANNELS 6 Xposition Yposition Zposition Zrotation Xrotation Yrotation
                JOINT lThumb2
                {
                  OFFSET 5.2953 0 0
                  CHANNELS 6 Xposition Yposition Zposition Zrotation Xrotation Yrotation
                  JOINT lThumb3
                  {
                    OFFSET 3.0181 0 0
                    CHANNELS 6 Xposition Yposition Zposition Zrotation Xrotation Yrotation
                    End Site
                    {
                      OFFSET 2.6294 0 0
                    }
                  }
                }
              }
              JOINT lIndex1
              {
                OFFSET 9.3793 0.2991 2.5924
                CHANNELS 6 Xposition Yposition Zposition Zrotation Xrotation Yrotation
                JOINT lIndex2
                {
                  OFFSET 4.3461 0 0
                  CHANNELS 6 Xposition Yposition Zposition Zrotation Xrotation Yrotation
                  JOINT lIndex3
                  {
                    OFFSET 2.1666 0 0
                    CHANNELS 6 Xposition Yposition Zposition Zrotation Xrotation Yrotation
                    End Site
                    {
                      OFFSET 2.2048 0 0
                    }
                  }
                }
              }
              JOINT lMid1
              {
                OFFSET 9.4769 0.8376 0.2947
                CHANNELS 6 Xposition Yposition Zposition Zrotation Xrotation Yrotation
                JOINT lMid2
                {
                  OFFSET 4.772 0 0
                  CHANNELS 6 Xposition Yposition Zposition Zrotation Xrotation Yrotation
                  JOINT lMid3
                  {
                    OFFSET 2.8722 0 0
                    CHANNELS 6 Xposition Yposition Zposition Zrotation Xrotation Yrotation
                    End Site
                    {
                      OFFSET 2.0959 0 0
                    }
                  }
                }
              }
              JOINT lRing1
              {
                OFFSET 8.6586 1.0176 -1.7016
                CHANNELS 6 Xposition Yposition Zposition Zrotation Xrotation Yrotation
                JOINT lRing2
                {
                  OFFSET 4.5461 0 0
                  CHANNELS 6 Xposition Yposition Zposition Zrotation Xrotation Yrotation
                  JOINT lRing3
                  {
                    OFFSET 2.506 0 0
                    CHANNELS 6 Xposition Yposition Zposition Zrotation Xrotation Yrotation
                    End Site
                    {
                      OFFSET 2.2023 0 0
                    }
                  }
                }
              }
              JOINT lPinky1
              {
                OFFSET 7.6901 0.6618 -3.9096
                CHANNELS 6 Xposition Yposition Zposition Zrotation Xrotation Yrotation
                JOINT lPinky2
                {
                  OFFSET 3.2119 0 0
                  CHANNELS 6 Xposition Yposition Zposition Zrotation Xrotation Yrotation
                  JOINT lPinky3
                  {
                    OFFSET 1.924 0 0
                    CHANNELS 6 Xposition Yposition Zposition Zrotation Xrotation Yrotation
                    End Site
                    {
                      OFFSET 1.7829 0 0
                    }
                  }
                }
              }
            }
          }
        }
      }
      JOINT rCollar
      {
        OFFSET -4.0677 26.6109 -1.1234
        CHANNELS 6 Xposition Yposition Zposition Zrotation Xrotation Yrotation
        JOINT rShldr
        {
          OFFSET -14.1772 0 0
          CHANNELS 6 Xposition Yposition Zposition Zrotation Xrotation Yrotation
          JOINT rForeArm
          {
            OFFSET -26.1234 0 0
            CHANNELS 6 Xposition Yposition Zposition Zrotation Xrotation Yrotation
            JOINT rHand
            {
              OFFSET -27.7188 0 0
              CHANNELS 6 Xposition Yposition Zposition Zrotation Xrotation Yrotation
              JOINT rThumb1
              {
                OFFSET -2.2979 -0.4684 1.8313
                CHANNELS 6 Xposition Yposition Zposition Zrotation Xrotation Yrotation
                JOINT rThumb2
                {
                  OFFSET -5.2953 0 0
                  CHANNELS 6 Xposition Yposition Zposition Zrotation Xrotation Yrotation
                  JOINT rThumb3
                  {
                    OFFSET -3.0181 0 0
                    CHANNELS 6 Xposition Yposition Zposition Zrotation Xrotation Yrotation
                    End Site
                    {
                      OFFSET -2.6294 0 0
                    }
                  }
                }
              }
              JOINT rIndex1
              {
                OFFSET -9.3793 0.2991 2.5924
                CHANNELS 6 Xposition Yposition Zposition Zrotation Xrotation Yrotation
                JOINT rIndex2
                {
                  OFFSET -4.3461 0 0
                  CHANNELS 6 Xposition Yposition Zposition Zrotation Xrotation Yrotation
                  JOINT rIndex3
                  {
                    OFFSET -2.1666 0 0
                    CHANNELS 6 Xposition Yposition Zposition Zrotation Xrotation Yrotation
                    End Site
                    {
                      OFFSET -2.2048 0 0
                    }
                  }
                }
              }
              JOINT rMid1
              {
                OFFSET -9.4769 0.8376 0.2947
                CHANNELS 6 Xposition Yposition Zposition Zrotation Xrotation Yrotation
                JOINT rMid2
                {
                  OFFSET -4.772 0 0
                  CHANNELS 6 Xposition Yposition Zposition Zrotation Xrotation Yrotation
                  JOINT rMid3
                  {
                    OFFSET -2.8722 0 0
                    CHANNELS 6 Xposition Yposition Zposition Zrotation Xrotation Yrotation
                    End Site
                    {
                      OFFSET -2.0959 0 0
                    }
                  }
                }
              }
              JOINT rRing1
              {
                OFFSET -8.6586 1.0176 -1.7016
                CHANNELS 6 Xposition Yposition Zposition Zrotation Xrotation Yrotation
                JOINT rRing2
                {
                  OFFSET -4.5461 0 0
                  CHANNELS 6 Xposition Yposition Zposition Zrotation Xrotation Yrotation
                  JOINT rRing3
                  {
                    OFFSET -2.506 0 0
                    CHANNELS 6 Xposition Yposition Zposition Zrotation Xrotation Yrotation
                    End Site
                    {
                      OFFSET -2.2023 0 0
                    }
                  }
                }
              }
              JOINT rPinky1
              {
                OFFSET -7.6901 0.6618 -3.9096
                CHANNELS 6 Xposition Yposition Zposition Zrotation Xrotation Yrotation
                JOINT rPinky2
                {
                  OFFSET -3.2119 0 0
                  CHANNELS 6 Xposition Yposition Zposition Zrotation Xrotation Yrotation
                  JOINT rPinky3
                  {
                    OFFSET -1.924 0 0
                    CHANNELS 6 Xposition Yposition Zposition Zrotation Xrotation Yrotation
                    End Site
                    {
                      OFFSET -1.7829 0 0
                    }
                  }
                }
              }
            }
          }
        }
      }
    }
  }
  JOINT lThigh
  {
    OFFSET 8.7379 -0.0029 0.0005
    CHANNELS 6 Xposition Yposition Zposition Zrotation Xrotation Yrotation
    JOINT lShin
    {
      OFFSET 0 -46.6676 0
      CHANNELS 6 Xposition Yposition Zposition Zrotation Xrotation Yrotation
      JOINT lFoot
      {
        OFFSET 0 -40.1476 0
        CHANNELS 6 Xposition Yposition Zposition Zrotation Xrotation Yrotation
        JOINT lToes
        {
          OFFSET 0 -8.8846 14.2294
          CHANNELS 6 Xposition Yposition Zposition Zrotation Xrotation Yrotation
          End Site
          {
            OFFSET 0 0 6.296
          }
        }
      }
    }
  }
  JOINT rThigh
  {
    OFFSET -8.7379 0.0029 -0.0005
    CHANNELS 6 Xposition Yposition Zposition Zrotation Xrotation Yrotation
    JOINT rShin
    {
      OFFSET 0 -46.6676 0
      CHANNELS 6 Xposition Yposition Zposition Zrotation Xrotation Yrotation
      JOINT rFoot
      {
        OFFSET 0 -40.1476 0
        CHANNELS 6 Xposition Yposition Zposition Zrotation Xrotation Yrotation
        JOINT rToes
        {
          OFFSET 0 -8.8846 14.2294
          CHANNELS 6 Xposition Yposition Zposition Zrotation Xrotation Yrotation
          End Site
          {
            OFFSET 0 0 6.296
          }
        }
      }
    }
  }
}
MOTION
Frames:	4
Frame Time:	0.0333333
-0.41909 39.8089 0.161339 -5.75727 -12.5069 -42.6028 0 7.2397 -1.77636e-15 -2.70788 13.5443 6.79218 3.33067e-16 16.546 2.22045e-16 -7.57831 28.7918 11.4202 -2.22045e-16 34.2149 0 2.75196 30.1509 1.86972 0 6.2923 1.42109e-14 4.39119 -35.739 21.0314 4.0639 26.6115 -1.1234 4.99363 -8.49217 -2.34275 14.1772 0 -3.55271e-15 -71.6836 6.96591 -55.7106 26.1234 -7.10543e-15 0 -105.868 -13.4483 -93.0542 27.7188 -1.42109e-14 3.55271e-15 9.20477 -28.1582 5.32395 2.2979 -0.4685 1.8313 37.184 70.9488 -65.3921 5.2953 7.10543e-15 0 -13.655 2.43915 4.23129 3.0181 7.10543e-15 0 40.575 -4.2621 10.4488 9.3793 0.2991 2.5924 -15.7189 8.26171 2.10857 4.3461 0 -1.06581e-14 -27.9757 -1.11868 5.5966 2.1666 0 -3.55271e-15 -30.2284 -1.57776 5.42757 9.4769 0.8376 0.2947 -15.5574 6.19104 1.80127 4.772 -1.42109e-14 0 -44.2332 -4.15799 10.4286 2.8722 0 0 -38.4625 -3.11874 10.6456 8.6586 1.0176 -1.7016 -12.8095 4.05758 0.0154702 4.5461 7.10543e-15 -7.10543e-15 -68.2419 -4.98725 7.35473 2.506 0 3.55271e-15 -26.184 0.226376 12.1003 7.6901 0.6618 -3.9096 -1.69592 -16.7036 -0.578557 3.2119 0 7.10543e-15 -48.2121 -6.75384 15.0249 1.924 -1.77636e-15 0 -25.7169 -1.92459 10.2066 -4.0677 26.6109 -1.1234 -9.13031 -10.8295 -10.6772 -14.1772 0 1.77636e-15 41.0515 41.8311 33.5989 -26.1234 -7.10543e-15 7.10543e-15 27.0224 0.374187 118.452 -27.7188 -7.10543e-15 0 -9.57437 -11.0328 12.6155 -2.2979 -0.4684 1.8313 -92.2023 72.3373 115.748 -5.2953 0 0 20.8059 -0.164377 -7.80924 -3.0181 0 -7.10543e-15 7.44356 -1.87409 -23.1505 -9.3793 0.2991 2.5924 -0.483223 -1.40429 -4.46205 -4.3461 -1.77636e-15 0 11.3885 0.0663242 -2.10806 -2.1666 7.10543e-15 -1.42109e-14 35.2115 -1.89997 -5.61245 -9.4769 0.8376 0.2947 -5.74454 -0.492494 -10.345 -4.772 1.77636e-15 0 99.6664 -15.9162 -13.5329 -2.8722 0 -1.42109e-14 64.9769 -7.76867 -13.6635 -8.6586 1.0176 -1.7016 4.03541 -11.2401 -9.54019 -4.5461 0 0 113.305 -9.33455 -6.15035 -2.506 -3.55271e-15 0 71.4335 -4.5206 -7.13529 -7.6901 0.6618 -3.9096 -3.28622 -26.781 -8.59917 -3.2119 0 0 88.1866 -18.3453 -18.9248 -1.924 -3.55271e-15 1.42109e-14 68.3114 -11.8989 -18.9734 8.7379 -0.0029 0.0005 76.3836 -50.9051 66.411 0 -46.6676 -7.10543e-15 177.833 52.6219 -160.853 -8.88178e-16 -40.1476 3.55271e-15 -20.0217 -27.8299 -1.72618 3.55271e-15 -8.8846 14.2294 0.0001 -2.48481e-17 -3.18055e-15 -8.7379 0.0029 -0.0005 -23.2388 -5.10607 25.1357 0 -46.6676 -8.88178e-16 -167.914 55.9672 157.914 0 -40.1476 0 -3.28372 -46.6162 -6.28127 0 -8.8846 14.2294 -1.59028e-15 -3.18055e-15 1.39149e-15 
-0.419456 39.8079 0.161717 -5.78831 -12.5302 -42.6032 -4.44089e-16 7.2397 0 -2.70143 13.5278 6.77845 5.55112e-16 16.546 2.22045e-16 -7.56285 28.7599 11.3882 2.22045e-16 34.2149 7.10543e-15 2.76276 30.1596 1.86769 0 6.2923 0 4.49675 -35.7298 21.1384 4.0639 26.6115 -1.1234 4.98519 -8.58604 -2.38107 14.1772 0 0 -71.6728 6.92049 -55.5868 26.1234 0 0 -105.947 -13.4882 -93.048 27.7188 -7.10543e-15 -3.55271e-15 9.19972 -28.1415 5.27783 2.2979 -0.4685 1.8313 37.184 70.9488 -65.3921 5.2953 -3.55271e-15 -1.42109e-14 -13.655 2.43915 4.23129 3.0181 -7.10543e-15 0 40.575 -4.2621 10.4488 9.3793 0.2991 2.5924 -15.7189 8.26171 2.10857 4.3461 -7.10543e-15 -3.55271e-15 -27.9757 -1.11868 5.5966 2.1666 0 0 -30.2284 -1.57776 5.42757 9.4769 0.8376 0.2947 -15.5574 6.19104 1.80127 4.772 1.42109e-14 -7.10543e-15 -44.2332 -4.15799 10.4286 2.8722 0 7.10543e-15 -38.4625 -3.11874 10.6456 8.6586 1.0176 -1.7016 -12.8095 4.05758 0.0154702 4.5461 7.10543e-15 0 -68.2419 -4.98725 7.35473 2.506 0 0 -26.184 0.226376 12.1003 7.6901 0.6618 -3.9096 -1.69592 -16.7036 -0.578557 3.2119 0 0 -48.2121 -6.75384 15.0249 1.924 3.55271e-15 0 -25.7169 -1.92459 10.2066 -4.0677 26.6109 -1.1234 -9.12142 -10.8431 -10.6449 -14.1772 1.42109e-14 -3.55271e-15 41.1344 41.8168 33.5719 -26.1234 7.10543e-15 -7.10543e-15 27.0757 0.369736 118.41 -27.7188 -7.10543e-15 -1.42109e-14 -9.51084 -11.011 12.5461 -2.2979 -0.4684 1.8313 -92.2023 72.3373 115.748 -5.2953 -7.10543e-15 0 20.8059 -0.164377 -7.80924 -3.0181 0 0 7.44356 -1.87409 -23.1505 -9.3793 0.2991 2.5924 -0.483223 -1.40429 -4.46205 -4.3461 1.77636e-15 0 11.3885 0.0663242 -2.10806 -2.1666 0 1.42109e-14 35.2115 -1.89997 -5.61245 -9.4769 0.8376 0.2947 -5.74454 -0.492494 -10.345 -4.772 -1.77636e-15 0 99.6664 -15.9162 -13.5329 -2.8722 7.10543e-15 -1.42109e-14 64.9769 -7.76867 -13.6635 -8.6586 1.0176 -1.7016 4.03541 -11.2401 -9.54019 -4.5461 -5.32907e-15 1.42109e-14 113.305 -9.33455 -6.15035 -2.506 0 -1.42109e-14 71.4335 -4.5206 -7.13529 -7.6901 0.6618 -3.9096 -3.28622 -26.781 -8.59917 -3.2119 3.55271e-15 0 88.1866 -18.3453 -18.9248 -1.924 -3.55271e-15 -1.42109e-14 68.3114 -11.8989 -18.9734 8.7379 -0.0029 0.0005 76.355 -50.8938 66.3671 0 -46.6676 0 177.833 52.6193 -160.86 -1.77636e-15 -40.1476 7.10543e-15 -20.0088 -27.8338 -1.7243 1.77636e-15 -8.8846 14.2294 0.0001 2.48481e-17 -3.18055e-15 -8.7379 0.0029 -0.0005 -23.2316 -5.06733 25.1279 0 -46.6676 2.66454e-15 -167.89 55.9649 157.885 3.55271e-15 -40.1476 3.55271e-15 -3.28424 -46.6166 -6.28196 0 -8.8846 14.2294 2.538e-31 -1.59028e-15 9.14409e-15 
-0.419822 39.807 0.162095 -5.81934 -12.5534 -42.6037 0 7.2397 -1.77636e-15 -2.69499 13.5113 6.76472 0 16.546 0 -7.54743 28.728 11.3562 -8.88178e-16 34.2149 0 2.77355 30.1682 1.86565 -8.88178e-16 6.2923 0 4.60229 -35.7205 21.2454 4.0639 26.6115 -1.1234 4.97662 -8.67991 -2.41941 14.1772 0 0 -71.6616 6.87466 -55.4631 26.1234 0 0 -106.027 -13.5281 -93.0416 27.7188 7.10543e-15 -3.55271e-15 9.19471 -28.1248 5.23174 2.2979 -0.4685 1.8313 37.184 70.9488 -65.3921 5.2953 3.55271e-15 7.10543e-15 -13.655 2.43915 4.23129 3.0181 -7.10543e-15 -7.10543e-15 40.575 -4.2621 10.4488 9.3793 0.2991 2.5924 -15.7189 8.26171 2.10857 4.3461 1.42109e-14 3.55271e-15 -27.9757 -1.11868 5.5966 2.1666 0 -3.55271e-15 -30.2284 -1.57776 5.42757 9.4769 0.8376 0.2947 -15.5574 6.19104 1.80127 4.772 0 0 -44.2332 -4.15799 10.4286 2.8722 0 3.55271e-15 -38.4625 -3.11874 10.6456 8.6586 1.0176 -1.7016 -12.8095 4.05758 0.0154702 4.5461 0 0 -68.2419 -4.98725 7.35473 2.506 7.10543e-15 0 -26.184 0.226376 12.1003 7.6901 0.6618 -3.9096 -1.69592 -16.7036 -0.578557 3.2119 0 -7.10543e-15 -48.2121 -6.75384 15.0249 1.924 3.55271e-15 0 -25.7169 -1.92459 10.2066 -4.0677 26.6109 -1.1234 -9.11252 -10.8568 -10.6125 -14.1772 -1.42109e-14 0 41.2171 41.8026 33.545 -26.1234 7.10543e-15 -7.10543e-15 27.129 0.365295 118.367 -27.7188 0 1.42109e-14 -9.44725 -10.9893 12.4767 -2.2979 -0.4684 1.8313 -92.2023 72.3373 115.748 -5.2953 7.10543e-15 -7.10543e-15 20.8059 -0.164377 -7.80924 -3.0181 -1.42109e-14 0 7.44356 -1.87409 -23.1505 -9.3793 0.2991 2.5924 -0.483223 -1.40429 -4.46205 -4.3461 -3.55271e-15 -1.42109e-14 11.3885 0.0663242 -2.10806 -2.1666 0 -1.42109e-14 35.2115 -1.89997 -5.61245 -9.4769 0.8376 0.2947 -5.74454 -0.492494 -10.345 -4.772 3.55271e-15 0 99.6664 -15.9162 -13.5329 -2.8722 -3.55271e-15 1.42109e-14 64.9769 -7.76867 -13.6635 -8.6586 1.0176 -1.7016 4.03541 -11.2401 -9.54019 -4.5461 0 0 113.305 -9.33455 -6.15035 -2.506 3.55271e-15 0 71.4335 -4.5206 -7.13529 -7.6901 0.6618 -3.9096 -3.28622 -26.781 -8.59917 -3.2119 -3.55271e-15 0 88.1866 -18.3453 -18.9248 -1.924 -3.55271e-15 0 68.3114 -11.8989 -18.9734 8.7379 -0.0029 0.0005 76.3264 -50.8824 66.3232 -1.77636e-15 -46.6676 0 177.833 52.6168 -160.868 3.55271e-15 -40.1476 -3.55271e-15 -19.9959 -27.8376 -1.72242 0 -8.8846 14.2294 0.0001 2.48481e-17 3.18055e-15 -8.7379 0.0029 -0.0005 -23.2244 -5.02857 25.1201 0 -46.6676 0 -167.865 55.9626 157.855 3.55271e-15 -40.1476 0 -3.28476 -46.6171 -6.28264 0 -8.8846 14.2294 -1.59028e-15 0 -4.96962e-15 
-0.419644 39.8056 0.16197 -5.85144 -12.578 -42.6048 -4.44089e-16 7.2397 0 -2.68902 13.4984 6.75309 0 16.546 -2.22045e-16 -7.53385 28.7033 11.3292 0 34.2149 7.10543e-15 2.78442 30.1756 1.86456 8.88178e-16 6.2923 0 4.71256 -35.7253 21.3506 4.0639 26.6115 -1.1234 4.96802 -8.77013 -2.45723 14.1772 0 0 -71.6469 6.83338 -55.3531 26.1234 -7.10543e-15 -7.10543e-15 -106.095 -13.5674 -93.0379 27.7188 0 3.55271e-15 9.19049 -28.1175 5.18966 2.2979 -0.4685 1.8313 37.184 70.9488 -65.3921 5.2953 3.55271e-15 0 -13.655 2.43915 4.23129 3.0181 -7.10543e-15 0 40.575 -4.2621 10.4488 9.3793 0.2991 2.5924 -15.7189 8.26171 2.10857 4.3461 1.42109e-14 3.55271e-15 -27.9757 -1.11868 5.5966 2.1666 -7.10543e-15 3.55271e-15 -30.2284 -1.57776 5.42757 9.4769 0.8376 0.2947 -15.5574 6.19104 1.80127 4.772 -1.42109e-14 0 -44.2332 -4.15799 10.4286 2.8722 3.55271e-15 -3.55271e-15 -38.4625 -3.11874 10.6456 8.6586 1.0176 -1.7016 -12.8095 4.05758 0.0154702 4.5461 -7.10543e-15 0 -68.2419 -4.98725 7.35473 2.506 0 0 -26.184 0.226376 12.1003 7.6901 0.6618 -3.9096 -1.69592 -16.7036 -0.578557 3.2119 1.42109e-14 2.13163e-14 -48.2121 -6.75384 15.0249 1.924 3.55271e-15 0 -25.7169 -1.92459 10.2066 -4.0677 26.6109 -1.1234 -9.09925 -10.8762 -10.5646 -14.1772 0 -3.55271e-15 41.303 41.7888 33.4955 -26.1234 0 0 27.2064 0.37268 118.344 -27.7188 0 -1.42109e-14 -9.38975 -10.9285 12.4079 -2.2979 -0.4684 1.8313 -92.2023 72.3373 115.748 -5.2953 0 0 20.8059 -0.164377 -7.80924 -3.0181 0 0 7.44356 -1.87409 -23.1505 -9.3793 0.2991 2.5924 -0.483223 -1.40429 -4.46205 -4.3461 -1.77636e-15 0 11.3885 0.0663242 -2.10806 -2.1666 3.55271e-15 0 35.2115 -1.89997 -5.61245 -9.4769 0.8376 0.2947 -5.74454 -0.492494 -10.345 -4.772 0 0 99.6664 -15.9162 -13.5329 -2.8722 0 0 64.9769 -7.76867 -13.6635 -8.6586 1.0176 -1.7016 4.03541 -11.2401 -9.54019 -4.5461 -3.55271e-15 1.42109e-14 113.305 -9.33455 -6.15035 -2.506 3.55271e-15 0 71.4335 -4.5206 -7.13529 -7.6901 0.6618 -3.9096 -3.28622 -26.781 -8.59917 -3.2119 -7.10543e-15 0 88.1866 -18.3453 -18.9248 -1.924 3.55271e-15 -1.42109e-14 68.3114 -11.8989 -18.9734 8.7379 -0.0029 0.0005 76.2952 -50.8734 66.2749 1.77636e-15 -46.6676 0 177.833 52.6143 -160.872 -8.88178e-16 -40.1476 -7.10543e-15 -19.9857 -27.8396 -1.72074 1.77636e-15 -8.8846 14.2294 0.0001 -4.96962e-17 -9.54166e-15 -8.7379 0.0029 -0.0005 -23.2175 -4.9896 25.1123 -7.10543e-15 -46.6676 0 -167.84 55.959 157.825 3.55271e-15 -40.1476 -3.55271e-15 -3.2856 -46.6177 -6.28345 0 -8.8846 14.2294 -3.86217e-32 -1.59028e-15 -1.39149e-15 
